<svg 
 xmlns="http://www.w3.org/2000/svg"
 xmlns:xlink="http://www.w3.org/1999/xlink"
 width="611px" height="350px">
<path fill-rule="evenodd"  fill="#000000"
 d="M591.000,156.000 C592.430,168.012 584.294,170.867 582.000,180.000 C581.479,182.074 581.866,187.331 581.000,191.000 C580.000,191.000 579.000,191.000 578.000,191.000 C577.032,190.749 577.621,190.216 577.000,191.000 C567.135,200.738 563.496,216.904 556.000,229.000 C540.125,254.617 520.643,280.177 494.000,295.000 C477.051,304.430 456.767,306.300 435.000,311.000 C422.668,311.000 410.332,311.000 398.000,311.000 C387.238,313.312 368.622,316.776 359.000,315.000 C359.000,314.667 359.000,314.333 359.000,314.000 C359.333,314.000 359.667,314.000 360.000,314.000 C363.291,311.983 367.460,313.161 372.000,312.000 C376.721,310.792 384.101,309.115 389.000,308.000 C400.332,307.667 411.668,307.333 423.000,307.000 C435.940,304.044 449.517,302.724 461.000,298.000 C469.061,294.684 477.356,289.310 485.000,286.000 C489.140,284.207 494.565,284.501 498.000,282.000 C508.290,268.704 523.870,259.316 534.000,246.000 C547.107,228.771 558.108,210.886 570.000,192.000 C575.456,183.336 584.010,174.777 587.000,164.000 C586.333,164.000 585.667,164.000 585.000,164.000 C578.667,171.999 572.333,180.001 566.000,188.000 C536.044,236.369 509.612,274.007 452.000,295.000 C436.371,300.695 418.358,299.046 400.000,303.000 C395.334,303.000 390.666,303.000 386.000,303.000 C371.970,306.077 359.974,310.903 346.000,308.000 C346.000,307.333 346.000,306.667 346.000,306.000 C361.781,302.906 374.666,293.829 388.000,288.000 C395.999,285.334 404.001,282.666 412.000,280.000 C437.087,269.336 462.789,257.921 484.000,243.000 C508.771,225.575 529.650,203.247 554.000,185.000 C558.966,181.279 562.741,175.502 568.000,172.000 C568.000,171.667 568.000,171.333 568.000,171.000 C567.000,171.000 566.000,171.000 565.000,171.000 C557.668,179.789 540.701,186.936 531.000,194.000 C525.272,198.171 521.442,205.688 516.000,210.000 C506.230,217.741 495.981,225.963 486.000,233.000 C466.899,246.467 445.248,259.273 423.000,269.000 C414.819,272.577 407.466,273.532 399.000,277.000 C388.645,281.242 375.654,285.139 366.000,291.000 C357.989,295.864 352.473,303.288 340.000,301.000 C340.007,298.280 339.961,296.402 339.000,295.000 C331.085,304.932 323.340,308.001 302.000,308.000 C297.667,308.000 293.333,308.000 289.000,308.000 C281.111,305.524 273.893,299.113 267.000,295.000 C267.573,297.950 269.033,298.103 266.000,300.000 C260.831,303.390 253.327,298.207 250.000,296.000 C236.819,287.253 221.517,279.686 206.000,273.000 C190.438,266.295 175.782,261.442 162.000,253.000 C139.513,239.226 119.723,222.581 99.000,207.000 C94.000,201.334 89.000,195.666 84.000,190.000 C70.032,179.449 56.208,166.721 40.000,159.000 C40.000,159.333 40.000,159.667 40.000,160.000 C46.878,164.715 51.436,173.029 58.000,178.000 C81.265,195.619 99.665,218.829 123.000,236.000 C161.710,264.484 214.128,286.285 261.000,306.000 C261.000,306.333 261.000,306.667 261.000,307.000 C257.000,307.667 253.000,308.333 249.000,309.000 C246.665,308.420 243.297,305.769 241.000,305.000 C233.102,302.354 224.154,301.824 216.000,300.000 C208.334,299.667 200.666,299.333 193.000,299.000 C174.684,294.864 158.311,291.693 143.000,285.000 C105.076,268.423 76.893,234.657 56.000,201.000 C51.151,193.189 48.848,184.812 44.000,177.000 C38.814,168.644 31.343,161.194 26.000,153.000 C25.667,153.000 25.333,153.000 25.000,153.000 C25.000,153.333 25.000,153.667 25.000,154.000 C24.667,154.000 24.333,154.000 24.000,154.000 C40.443,189.394 66.496,233.627 95.000,257.000 C100.502,261.512 104.590,271.658 111.000,276.000 C115.291,278.907 120.373,279.599 125.000,282.000 C133.577,286.451 142.792,292.239 152.000,296.000 C178.808,306.950 218.948,303.040 247.000,313.000 C247.000,313.333 247.000,313.667 247.000,314.000 C243.667,314.000 240.333,314.000 237.000,314.000 C229.176,308.217 216.427,311.499 205.000,309.000 C185.653,304.769 164.013,307.515 147.000,302.000 C85.484,282.058 69.463,246.039 42.000,193.000 C35.185,179.839 24.211,166.550 20.000,151.000 C22.304,149.679 21.527,148.841 23.000,147.000 C26.970,148.801 35.580,145.017 43.000,145.000 C62.998,145.667 83.002,146.333 103.000,147.000 C154.375,158.905 189.427,175.065 216.000,211.000 C222.575,219.892 233.345,229.734 237.000,241.000 C237.333,241.000 237.667,241.000 238.000,241.000 C233.017,218.697 225.853,178.001 232.000,150.000 C234.411,139.015 231.332,129.203 234.000,119.000 C236.215,110.532 239.738,100.456 242.000,92.000 C244.219,83.703 243.169,77.506 246.000,70.000 C252.494,52.781 265.313,42.428 275.000,29.000 C286.276,13.369 278.639,-0.449 308.000,0.000 C308.000,0.333 308.000,0.667 308.000,1.000 C318.450,4.413 325.480,16.855 334.000,23.000 C365.488,45.711 372.542,63.567 387.000,103.000 C392.656,118.426 398.202,146.627 393.000,169.000 C391.811,174.116 390.196,181.214 389.000,186.000 C389.000,188.666 389.000,191.334 389.000,194.000 C387.882,196.996 384.380,203.180 384.000,207.000 C383.751,209.503 384.522,213.437 383.000,218.000 C381.401,222.794 378.345,228.258 377.000,234.000 C377.333,234.000 377.667,234.000 378.000,234.000 C401.945,193.795 435.142,172.804 485.000,158.000 C492.072,155.900 502.058,154.732 510.000,153.000 C515.999,153.000 522.001,153.000 528.000,153.000 C529.839,152.608 534.607,151.278 538.000,152.000 C547.078,153.931 560.679,150.766 571.000,153.000 C577.131,154.327 584.327,155.706 591.000,156.000 ZM282.000,243.000 C264.348,245.326 262.374,242.509 252.000,235.000 C252.000,235.333 252.000,235.667 252.000,236.000 C254.346,239.030 254.674,243.851 257.000,247.000 C265.662,238.743 279.931,252.012 280.000,261.000 C277.552,261.850 273.816,262.039 270.000,262.000 C267.920,260.373 261.868,258.528 261.000,259.000 C260.197,260.180 260.227,260.681 260.000,263.000 C269.189,259.541 280.120,266.153 280.000,276.000 C278.333,276.000 276.666,276.000 275.000,276.000 C275.000,276.333 275.000,276.667 275.000,277.000 C278.668,279.347 281.686,281.931 286.000,284.000 C286.000,284.333 286.000,284.667 286.000,285.000 C285.361,286.024 283.831,285.204 285.000,286.000 C285.333,286.667 285.667,287.333 286.000,288.000 C289.281,286.546 294.037,284.911 298.000,284.000 C304.904,282.414 312.431,286.605 316.000,285.000 C319.867,282.345 318.138,278.350 323.000,275.000 C326.059,272.792 334.904,273.212 337.000,270.000 C330.969,272.294 313.699,271.787 316.000,263.000 C317.404,257.641 325.256,258.027 328.000,254.000 C321.846,254.049 317.006,252.289 316.000,247.000 C316.804,245.979 316.355,246.726 317.000,245.000 C321.539,242.114 326.309,238.977 333.000,238.000 C337.299,237.372 345.774,242.146 347.000,241.000 C347.804,239.979 347.355,240.726 348.000,239.000 C336.760,238.974 326.973,235.433 318.000,233.000 C317.442,231.397 317.200,230.596 317.000,228.000 C326.258,221.965 339.122,223.264 352.000,226.000 C352.000,225.000 352.000,224.000 352.000,223.000 C341.671,224.483 317.487,223.908 317.000,212.000 C317.804,210.979 317.355,211.726 318.000,210.000 C332.784,202.375 341.287,205.880 356.000,210.000 C356.000,206.667 356.000,203.333 356.000,200.000 C341.786,202.038 331.342,203.140 317.000,200.000 C316.230,196.903 315.003,196.160 316.000,194.000 C318.469,187.409 324.624,189.500 330.000,186.000 C325.847,184.736 322.622,185.098 321.000,181.000 C319.456,178.653 320.414,176.719 321.000,174.000 C324.491,172.846 327.811,170.066 331.000,169.000 C342.872,165.030 353.756,170.735 362.000,173.000 C362.000,172.333 362.000,171.667 362.000,171.000 C363.105,169.616 363.494,168.127 364.000,166.000 C362.334,166.000 360.667,166.000 359.000,166.000 C352.606,170.138 334.182,166.443 327.000,166.000 C324.980,162.534 323.410,160.471 323.000,155.000 C327.519,153.024 339.088,150.737 343.000,148.000 C339.000,147.333 335.000,146.667 331.000,146.000 C329.490,142.967 328.457,142.462 328.000,138.000 C328.798,137.020 329.446,135.257 330.000,134.000 C339.529,129.473 353.117,127.536 364.000,132.000 C362.460,128.759 362.263,127.773 358.000,127.000 C350.507,131.946 332.845,126.031 326.000,125.000 C326.000,123.000 326.000,121.000 326.000,119.000 C328.674,117.182 330.190,113.475 333.000,112.000 C337.668,109.550 344.797,110.860 349.000,108.000 C343.462,108.153 338.944,107.450 336.000,105.000 C335.123,103.705 335.106,102.533 335.000,100.000 C335.804,98.979 335.355,99.726 336.000,98.000 C340.082,95.694 344.015,93.921 349.000,92.000 C349.000,91.667 349.000,91.333 349.000,91.000 C347.000,91.000 345.000,91.000 343.000,91.000 C339.712,88.902 333.967,89.329 331.000,87.000 C330.197,85.820 330.227,85.319 330.000,83.000 C331.382,81.782 332.461,78.877 334.000,78.000 C339.122,75.081 348.927,77.916 352.000,73.000 C351.333,73.000 350.667,73.000 350.000,73.000 C342.440,78.584 326.265,73.757 325.000,66.000 C325.667,66.000 326.333,66.000 327.000,66.000 C330.920,62.570 343.188,63.342 346.000,59.000 C344.916,58.091 345.915,59.078 345.000,58.000 C341.011,59.501 336.944,60.026 331.000,60.000 C329.255,56.526 328.146,55.638 328.000,50.000 C330.407,48.759 335.527,47.731 338.000,46.000 C331.920,40.061 327.469,32.572 318.000,30.000 C312.198,28.424 303.041,30.324 299.000,32.000 C285.701,37.514 265.823,59.012 262.000,74.000 C262.333,74.000 262.667,74.000 263.000,74.000 C263.000,73.333 263.000,72.667 263.000,72.000 C268.655,66.876 276.897,63.920 287.000,66.000 C287.820,69.313 288.616,70.351 291.000,72.000 C291.000,72.333 291.000,72.667 291.000,73.000 C290.667,73.000 290.333,73.000 290.000,73.000 C284.151,81.498 277.690,75.302 270.000,80.000 C275.669,79.908 281.738,80.133 286.000,81.000 C286.652,82.875 286.952,84.913 287.000,88.000 C279.675,91.513 271.196,94.990 261.000,93.000 C260.667,90.334 260.333,87.666 260.000,85.000 C262.546,83.603 266.682,81.923 269.000,80.000 C262.725,80.142 264.686,80.408 261.000,77.000 C260.050,83.243 256.483,88.154 255.000,94.000 C252.141,105.268 253.949,113.297 251.000,124.000 C249.943,127.837 245.730,134.572 249.000,140.000 C249.205,134.962 250.081,133.337 254.000,132.000 C260.086,126.261 272.534,126.935 281.000,129.000 C282.533,131.464 283.291,131.276 284.000,135.000 C280.395,138.906 280.199,142.337 273.000,143.000 C265.965,148.084 253.776,144.870 249.000,142.000 C248.333,146.333 247.667,150.667 247.000,155.000 C247.333,155.000 247.667,155.000 248.000,155.000 C252.573,146.574 270.968,144.408 282.000,149.000 C282.599,150.725 282.890,152.152 283.000,155.000 C279.968,157.943 278.508,161.425 274.000,163.000 C267.273,168.552 253.703,165.634 248.000,162.000 C248.000,164.666 248.000,167.334 248.000,170.000 C248.333,170.000 248.667,170.000 249.000,170.000 C255.180,163.963 277.885,166.048 279.000,175.000 C270.937,180.332 264.769,180.498 252.000,180.000 C250.717,177.928 249.923,177.698 249.000,175.000 C248.667,175.000 248.333,175.000 248.000,175.000 C248.000,177.666 248.000,180.334 248.000,183.000 C247.667,183.000 247.333,183.000 247.000,183.000 C247.000,183.333 247.000,183.667 247.000,184.000 C247.667,184.000 248.333,184.000 249.000,184.000 C253.926,179.485 267.488,182.673 273.000,184.000 C274.876,187.637 277.580,189.056 279.000,193.000 C278.667,193.000 278.333,193.000 278.000,193.000 C270.591,199.844 256.481,193.127 249.000,191.000 C249.000,194.000 249.000,197.000 249.000,200.000 C249.333,200.000 249.667,200.000 250.000,200.000 C254.911,192.648 274.401,196.941 277.000,204.000 C277.752,205.073 277.601,204.946 278.000,207.000 C276.540,207.854 275.133,208.812 274.000,210.000 C262.854,210.961 256.289,208.744 249.000,204.000 C249.000,205.333 249.000,206.667 249.000,208.000 C252.345,213.855 247.319,225.019 252.000,231.000 C256.935,224.935 268.062,229.427 274.000,231.000 C276.719,235.095 280.862,237.351 282.000,243.000 ZM311.000,34.000 C317.549,33.743 322.021,34.658 324.000,39.000 C324.752,40.073 324.601,39.946 325.000,42.000 C320.287,45.214 297.523,57.812 296.000,45.000 C299.546,41.699 303.505,38.418 307.000,35.000 C309.328,34.805 309.826,34.807 311.000,34.000 ZM344.000,43.000 C343.672,44.384 345.419,44.451 346.000,45.000 C346.699,43.937 344.276,43.301 344.000,43.000 ZM347.000,47.000 C346.672,48.384 348.419,48.451 349.000,49.000 C349.699,47.937 347.276,47.301 347.000,47.000 ZM310.000,49.000 C316.799,48.860 321.471,49.806 326.000,51.000 C326.667,54.333 327.333,57.667 328.000,61.000 C327.196,62.021 327.645,61.274 327.000,63.000 C319.660,67.517 292.723,77.481 288.000,64.000 C289.105,62.616 289.494,61.127 290.000,59.000 C293.286,57.007 296.404,53.545 300.000,52.000 C303.492,50.500 307.244,51.017 310.000,49.000 ZM349.000,50.000 C348.672,51.384 350.419,51.451 351.000,52.000 C351.699,50.937 349.276,50.301 349.000,50.000 ZM283.000,51.000 C286.578,51.023 288.414,51.462 291.000,52.000 C291.000,53.333 291.000,54.667 291.000,56.000 C285.617,59.725 285.575,63.906 276.000,64.000 C273.364,65.850 271.812,65.350 269.000,65.000 C269.000,63.667 269.000,62.333 269.000,61.000 C271.544,59.133 273.402,55.707 276.000,54.000 C278.249,52.522 281.046,52.595 283.000,51.000 ZM356.000,62.000 C357.000,64.666 358.000,67.334 359.000,70.000 C359.333,70.000 359.667,70.000 360.000,70.000 C359.288,66.860 357.938,63.952 356.000,62.000 ZM309.000,70.000 C314.000,70.333 319.000,70.667 324.000,71.000 C325.551,73.482 327.908,76.897 330.000,79.000 C329.549,81.121 329.104,82.647 328.000,84.000 C323.936,88.116 292.695,93.487 289.000,88.000 C289.000,85.667 289.000,83.333 289.000,81.000 C289.804,79.979 289.355,80.726 290.000,79.000 C292.717,77.303 294.970,74.305 298.000,73.000 C301.580,71.457 306.035,72.051 309.000,70.000 ZM79.000,78.000 C107.086,76.514 127.233,84.362 147.000,93.000 C153.350,95.775 167.307,100.314 171.000,105.000 C179.624,115.945 187.782,141.246 191.000,157.000 C190.000,157.000 189.000,157.000 188.000,157.000 C184.848,153.721 179.594,151.760 177.000,148.000 C173.409,142.794 173.669,136.501 171.000,130.000 C169.129,125.443 166.076,120.820 164.000,116.000 C163.333,116.000 162.667,116.000 162.000,116.000 C162.000,117.333 162.000,118.667 162.000,120.000 C165.761,124.196 169.047,134.725 170.000,141.000 C169.333,141.000 168.667,141.000 168.000,141.000 C166.249,138.375 150.671,118.959 149.000,118.000 C143.412,118.813 138.598,113.442 134.000,110.000 C126.785,104.598 121.696,97.169 113.000,93.000 C113.000,94.333 113.000,95.667 113.000,97.000 C117.711,98.590 145.021,122.555 146.000,127.000 C145.333,127.000 144.667,127.000 144.000,127.000 C139.266,123.194 130.780,120.216 123.000,120.000 C123.000,120.333 123.000,120.667 123.000,121.000 C132.513,126.946 144.172,131.769 155.000,137.000 C155.000,137.667 155.000,138.333 155.000,139.000 C153.334,139.000 151.666,139.000 150.000,139.000 C143.673,134.645 129.998,133.732 122.000,132.000 C114.720,119.281 108.631,105.390 100.000,94.000 C95.673,88.290 80.879,84.219 79.000,78.000 ZM365.000,82.000 C365.372,84.076 365.242,83.924 366.000,85.000 C365.628,82.924 365.758,83.076 365.000,82.000 ZM422.000,160.000 C422.388,150.194 426.943,143.225 430.000,136.000 C434.041,126.450 437.005,116.728 443.000,109.000 C448.813,101.505 480.032,92.587 492.000,89.000 C503.282,85.619 522.558,80.992 536.000,86.000 C535.369,87.754 535.807,86.971 535.000,88.000 C526.564,94.807 516.384,97.231 510.000,106.000 C503.562,114.843 499.812,130.657 491.000,137.000 C486.376,140.481 464.550,143.661 457.000,144.000 C457.000,143.333 457.000,142.667 457.000,142.000 C466.584,136.785 479.424,132.919 489.000,128.000 C489.000,127.333 489.000,126.667 489.000,126.000 C487.334,126.000 485.667,126.000 484.000,126.000 C480.012,129.125 472.045,131.524 466.000,132.000 C466.000,131.333 466.000,130.667 466.000,130.000 C471.991,126.572 499.527,105.675 501.000,100.000 C500.333,100.000 499.667,100.000 499.000,100.000 C492.502,106.789 483.736,111.435 476.000,117.000 C473.624,118.709 471.423,122.484 469.000,124.000 C467.110,125.183 464.190,123.716 462.000,125.000 C458.137,127.265 448.469,144.818 444.000,147.000 C442.079,147.938 439.488,145.721 439.000,146.000 C432.591,149.666 433.916,158.804 422.000,160.000 ZM305.000,90.000 C318.169,89.393 333.556,89.714 334.000,102.000 C321.427,109.480 309.581,111.826 291.000,108.000 C289.218,104.957 288.219,104.159 288.000,99.000 C292.796,96.109 300.143,93.610 305.000,90.000 ZM368.000,91.000 C368.000,91.667 368.000,92.333 368.000,93.000 C368.333,93.000 368.667,93.000 369.000,93.000 C369.000,92.333 369.000,91.667 369.000,91.000 C368.667,91.000 368.333,91.000 368.000,91.000 ZM369.000,94.000 C369.293,96.837 369.666,98.364 371.000,100.000 C371.000,99.000 371.000,98.000 371.000,97.000 C370.318,96.229 369.689,94.768 369.000,94.000 ZM267.000,95.000 C273.529,94.903 280.939,94.978 286.000,96.000 C286.558,97.603 286.800,98.404 287.000,101.000 C286.196,102.021 286.645,101.274 286.000,103.000 C277.731,105.156 272.199,107.948 260.000,108.000 C258.292,105.275 257.464,105.502 257.000,101.000 C259.000,99.333 261.000,97.667 263.000,96.000 C265.328,95.805 265.826,95.807 267.000,95.000 ZM136.000,98.000 C137.127,102.840 140.511,108.385 144.000,111.000 C144.909,112.084 143.922,111.085 145.000,112.000 C145.000,111.333 145.000,110.667 145.000,110.000 C141.528,106.102 141.484,100.020 136.000,98.000 ZM371.000,101.000 C371.372,103.076 371.242,102.924 372.000,104.000 C372.000,103.000 372.000,102.000 372.000,101.000 C371.667,101.000 371.333,101.000 371.000,101.000 ZM476.000,104.000 C476.000,104.667 476.000,105.333 476.000,106.000 C477.084,105.091 476.085,106.078 477.000,105.000 C477.333,105.000 477.667,105.000 478.000,105.000 C476.979,104.196 477.726,104.645 476.000,104.000 ZM372.000,105.000 C372.195,107.328 372.193,107.826 373.000,109.000 C372.805,106.672 372.807,106.174 372.000,105.000 ZM474.000,107.000 C474.000,107.667 474.000,108.333 474.000,109.000 C474.333,109.000 474.667,109.000 475.000,109.000 C474.369,107.246 474.807,108.029 474.000,107.000 ZM265.000,109.000 C275.561,108.419 284.687,107.806 285.000,118.000 C276.572,123.636 271.618,126.127 256.000,126.000 C254.114,122.641 253.086,120.697 253.000,115.000 C256.299,113.459 262.056,111.390 265.000,109.000 ZM373.000,110.000 C374.000,121.332 375.000,132.668 376.000,144.000 C374.261,152.379 375.140,162.119 373.000,171.000 C367.902,192.152 365.002,215.144 359.000,234.000 C358.000,239.999 357.000,246.001 356.000,252.000 C353.128,259.540 346.094,265.626 342.000,272.000 C334.523,283.638 310.374,304.962 288.000,297.000 C282.541,295.057 277.826,289.945 273.000,287.000 C273.000,287.333 273.000,287.667 273.000,288.000 C273.333,288.000 273.667,288.000 274.000,288.000 C286.318,305.537 315.209,301.523 331.000,290.000 C335.854,286.458 338.387,279.886 342.000,275.000 C346.029,269.552 352.788,265.267 356.000,259.000 C359.078,252.996 357.866,246.291 360.000,239.000 C366.738,215.973 370.320,188.853 376.000,163.000 C378.448,151.859 377.696,117.034 373.000,110.000 ZM297.000,111.000 C309.072,110.397 324.847,111.357 325.000,123.000 C317.109,128.397 284.903,139.314 284.000,120.000 C284.804,118.979 284.355,119.726 285.000,118.000 C288.361,115.962 293.729,113.639 297.000,111.000 ZM180.000,113.000 C181.333,113.000 182.667,113.000 184.000,113.000 C191.806,122.670 217.060,132.450 218.000,147.000 C223.201,155.542 217.943,171.862 221.000,183.000 C221.591,185.154 223.307,187.324 224.000,190.000 C223.667,190.000 223.333,190.000 223.000,190.000 C223.000,189.667 223.000,189.333 223.000,189.000 C220.616,186.465 220.280,182.769 218.000,180.000 C216.999,178.784 215.284,180.005 214.000,179.000 C212.637,177.933 212.243,175.248 211.000,174.000 C206.607,169.589 200.267,166.473 197.000,161.000 C191.334,145.002 185.666,128.998 180.000,113.000 ZM434.000,116.000 C432.578,127.572 425.136,138.456 421.000,148.000 C418.507,153.753 418.342,160.076 415.000,165.000 C412.404,168.825 405.263,175.034 400.000,176.000 C398.448,174.505 398.162,175.223 397.000,173.000 C396.248,171.927 396.399,172.054 396.000,170.000 C397.546,168.867 396.843,168.915 399.000,168.000 C399.000,167.667 399.000,167.333 399.000,167.000 C399.333,167.000 399.667,167.000 400.000,167.000 C400.195,169.328 400.193,169.826 401.000,171.000 C401.000,170.667 401.000,170.333 401.000,170.000 C407.958,162.468 411.584,140.597 412.000,129.000 C418.893,124.885 424.625,117.083 434.000,116.000 ZM450.000,121.000 C447.499,129.218 442.204,134.282 440.000,144.000 C440.667,144.000 441.333,144.000 442.000,144.000 C442.000,143.667 442.000,143.333 442.000,143.000 C445.202,139.744 452.250,125.399 450.000,121.000 ZM298.000,131.000 C310.110,130.657 317.922,132.764 325.000,137.000 C324.399,140.386 324.413,140.615 325.000,144.000 C318.698,146.113 302.633,156.743 292.000,150.000 C287.404,148.604 285.967,145.847 283.000,143.000 C283.631,141.246 283.193,142.029 284.000,141.000 C286.454,134.016 292.545,134.834 298.000,131.000 ZM133.000,144.000 C162.710,147.039 184.391,163.381 201.000,180.000 C206.555,185.558 214.408,191.775 217.000,200.000 C216.333,200.000 215.667,200.000 215.000,200.000 C201.352,179.634 162.157,151.129 133.000,147.000 C133.000,146.000 133.000,145.000 133.000,144.000 ZM367.000,145.000 C362.821,145.405 354.159,146.737 351.000,149.000 C355.845,149.214 363.947,152.847 365.000,152.000 C366.521,150.105 366.789,148.410 367.000,145.000 ZM345.000,147.000 C346.755,148.184 348.251,148.143 350.000,147.000 C348.334,147.000 346.667,147.000 345.000,147.000 ZM35.000,148.000 C43.398,159.168 59.500,155.220 76.000,159.000 C95.611,163.493 113.494,166.765 130.000,174.000 C153.775,184.421 191.494,208.662 206.000,228.000 C212.817,237.087 218.204,246.948 225.000,256.000 C231.818,265.082 242.815,271.161 252.000,278.000 C255.716,280.767 257.981,285.323 262.000,288.000 C258.305,282.270 253.459,272.090 248.000,268.000 C240.716,262.542 232.398,257.199 227.000,250.000 C217.686,237.577 209.498,224.954 200.000,213.000 C196.644,208.777 190.403,205.278 186.000,202.000 C164.151,185.736 140.981,170.491 112.000,161.000 C101.334,158.667 90.666,156.333 80.000,154.000 C73.667,153.667 67.333,153.333 61.000,153.000 C52.402,151.022 45.535,148.178 35.000,148.000 ZM487.000,148.000 C487.000,149.000 487.000,150.000 487.000,151.000 C459.185,151.809 429.294,172.963 412.000,186.000 C405.333,191.026 401.380,200.852 393.000,204.000 C393.000,203.000 393.000,202.000 393.000,201.000 C401.297,195.216 405.873,184.111 414.000,178.000 C433.733,163.161 454.774,150.460 487.000,148.000 ZM320.000,151.000 C320.667,151.000 321.333,151.000 322.000,151.000 C322.000,151.333 322.000,151.667 322.000,152.000 C320.246,151.369 321.029,151.807 320.000,151.000 ZM295.000,152.000 C305.912,151.592 316.400,152.089 321.000,158.000 C322.521,159.895 322.789,161.590 323.000,165.000 C318.827,167.825 313.611,171.722 308.000,173.000 C305.000,172.667 302.000,172.333 299.000,172.000 C288.476,171.888 278.553,174.280 278.000,162.000 C280.465,160.419 281.768,157.495 284.000,156.000 C287.666,154.667 291.334,153.333 295.000,152.000 ZM569.000,157.000 C560.480,162.224 548.569,158.393 537.000,161.000 C518.682,165.127 500.700,165.561 485.000,172.000 C457.441,183.302 418.387,203.243 402.000,225.000 C396.040,232.913 390.986,241.023 385.000,249.000 C374.971,262.364 359.481,270.524 350.000,285.000 C350.333,285.000 350.667,285.000 351.000,285.000 C359.715,272.208 377.633,266.504 387.000,254.000 C414.822,216.862 440.952,195.838 487.000,177.000 C498.991,172.095 512.675,170.069 526.000,167.000 C534.666,166.667 543.334,166.333 552.000,166.000 C560.887,164.001 569.297,161.869 576.000,158.000 C576.000,157.667 576.000,157.333 576.000,157.000 C573.667,157.000 571.333,157.000 569.000,157.000 ZM292.000,173.000 C302.099,172.567 314.897,173.371 318.000,180.000 C319.400,182.240 318.545,183.276 318.000,186.000 C313.913,187.427 310.411,190.817 306.000,192.000 C298.874,193.911 287.808,191.690 282.000,191.000 C279.224,187.536 276.080,187.494 275.000,182.000 C278.000,179.667 281.000,177.333 284.000,175.000 C286.668,173.826 289.897,174.453 292.000,173.000 ZM359.000,182.000 C355.420,185.987 347.647,183.998 343.000,187.000 C350.052,187.117 353.413,189.624 358.000,192.000 C358.000,191.333 358.000,190.667 358.000,190.000 C359.696,188.014 360.690,184.524 359.000,182.000 ZM336.000,184.000 C335.140,184.649 332.856,185.338 332.000,186.000 C336.026,186.133 337.468,186.543 339.000,184.000 C338.000,184.000 337.000,184.000 336.000,184.000 ZM289.000,193.000 C301.728,192.383 315.954,191.318 316.000,204.000 C307.573,209.415 279.580,216.592 278.000,199.000 C281.050,197.292 286.132,195.324 289.000,193.000 ZM35.000,194.000 C36.000,194.333 37.000,194.667 38.000,195.000 C39.378,205.987 46.138,216.011 51.000,224.000 C67.809,251.622 84.464,279.461 114.000,294.000 C114.000,294.667 114.000,295.333 114.000,296.000 C113.667,296.000 113.333,296.000 113.000,296.000 C106.540,290.528 92.264,279.366 84.000,277.000 C84.000,278.333 84.000,279.667 84.000,281.000 C85.278,283.052 84.710,284.310 85.000,287.000 C93.095,289.654 99.430,297.089 107.000,301.000 C107.000,301.667 107.000,302.333 107.000,303.000 C106.333,303.000 105.667,303.000 105.000,303.000 C98.938,298.362 76.557,290.163 66.000,290.000 C66.000,290.333 66.000,290.667 66.000,291.000 C66.333,291.000 66.667,291.000 67.000,291.000 C67.000,291.333 67.000,291.667 67.000,292.000 C74.333,295.333 81.667,298.667 89.000,302.000 C87.979,302.804 88.726,302.355 87.000,303.000 C80.555,306.912 65.406,301.027 59.000,305.000 C68.278,304.824 78.700,304.484 86.000,307.000 C85.369,308.754 85.807,307.971 85.000,309.000 C77.334,311.333 69.666,313.667 62.000,316.000 C62.000,316.667 62.000,317.333 62.000,318.000 C63.667,318.000 65.334,318.000 67.000,318.000 C74.688,312.593 105.277,306.576 118.000,309.000 C118.000,309.333 118.000,309.667 118.000,310.000 C117.667,310.000 117.333,310.000 117.000,310.000 C109.761,318.921 95.135,317.860 86.000,325.000 C87.333,325.000 88.667,325.000 90.000,325.000 C92.931,323.023 97.059,324.304 101.000,323.000 C109.236,320.275 130.230,304.191 138.000,319.000 C137.667,319.000 137.333,319.000 137.000,319.000 C133.063,322.835 127.251,323.331 122.000,326.000 C114.804,329.658 107.941,334.821 99.000,337.000 C86.844,339.962 76.829,334.311 70.000,332.000 C54.091,326.616 39.022,322.539 26.000,314.000 C22.656,311.807 20.200,307.228 17.000,305.000 C10.407,300.408 1.793,297.130 0.000,288.000 C0.667,288.000 1.333,288.000 2.000,288.000 C16.869,300.266 53.733,286.785 65.000,282.000 C70.495,279.666 79.680,279.425 82.000,274.000 C59.966,258.961 46.040,220.817 35.000,194.000 ZM255.000,211.000 C265.142,210.703 273.656,213.435 276.000,221.000 C276.877,222.295 276.894,223.467 277.000,226.000 C276.333,226.000 275.667,226.000 275.000,226.000 C266.186,232.292 250.883,221.998 251.000,213.000 C253.245,212.413 253.655,212.252 255.000,211.000 ZM281.000,211.000 C281.667,211.000 282.333,211.000 283.000,211.000 C283.000,211.667 283.000,212.333 283.000,213.000 C282.333,213.000 281.667,213.000 281.000,213.000 C281.000,212.333 281.000,211.667 281.000,211.000 ZM290.000,212.000 C300.643,211.846 308.132,214.836 316.000,217.000 C316.558,218.603 316.800,219.404 317.000,222.000 C309.121,226.868 281.720,233.676 279.000,219.000 C279.804,217.979 279.355,218.726 280.000,217.000 C282.703,215.516 287.338,213.996 290.000,212.000 ZM314.000,212.000 C314.667,212.000 315.333,212.000 316.000,212.000 C316.000,212.333 316.000,212.667 316.000,213.000 C314.246,212.369 315.029,212.807 314.000,212.000 ZM569.000,214.000 C571.467,215.295 569.681,213.571 571.000,216.000 C570.667,216.000 570.333,216.000 570.000,216.000 C568.979,216.804 569.726,216.355 568.000,217.000 C568.333,216.000 568.667,215.000 569.000,214.000 ZM536.000,269.000 C536.195,266.672 536.193,266.174 537.000,265.000 C538.998,259.086 544.714,255.658 548.000,251.000 C555.228,240.752 561.395,229.557 567.000,218.000 C567.667,218.000 568.333,218.000 569.000,218.000 C569.000,219.000 569.000,220.000 569.000,221.000 C559.758,231.287 549.884,266.157 536.000,269.000 ZM250.000,221.000 C251.624,222.350 251.121,221.640 252.000,224.000 C251.667,224.000 251.333,224.000 251.000,224.000 C251.000,223.667 251.000,223.333 251.000,223.000 C250.196,221.979 250.645,222.726 250.000,221.000 ZM293.000,229.000 C305.845,228.403 318.633,228.774 319.000,241.000 C310.753,246.291 300.279,247.664 287.000,246.000 C284.591,242.405 282.522,241.939 282.000,236.000 C285.174,234.015 289.925,231.533 293.000,229.000 ZM295.000,248.000 C304.270,247.669 316.563,249.162 318.000,257.000 C305.119,265.679 299.877,264.794 283.000,261.000 C282.039,259.234 281.743,259.320 281.000,257.000 C281.333,257.000 281.667,257.000 282.000,257.000 C283.612,252.302 286.875,251.958 290.000,249.000 C292.532,248.926 293.716,248.880 295.000,248.000 ZM334.000,255.000 C336.111,256.321 342.636,256.228 345.000,257.000 C342.850,254.531 338.796,254.809 334.000,255.000 ZM296.000,266.000 C306.848,265.468 319.161,266.276 320.000,276.000 C319.196,277.021 319.645,276.274 319.000,278.000 C308.894,283.112 285.167,285.287 281.000,273.000 C283.000,271.333 285.000,269.666 287.000,268.000 C290.252,267.902 293.997,267.455 296.000,266.000 ZM504.000,348.000 C471.606,348.961 435.229,351.810 408.000,343.000 C398.704,339.992 389.115,336.972 380.000,333.000 C373.689,330.250 367.991,325.051 361.000,323.000 C361.000,322.667 361.000,322.333 361.000,322.000 C361.333,322.000 361.667,322.000 362.000,322.000 C368.159,318.986 381.158,324.694 386.000,326.000 C390.958,327.337 396.543,324.015 402.000,326.000 C410.969,329.263 415.610,336.327 425.000,339.000 C425.000,338.333 425.000,337.667 425.000,337.000 C421.154,335.874 415.036,332.126 414.000,328.000 C441.643,327.372 450.660,336.499 468.000,345.000 C468.000,344.333 468.000,343.667 468.000,343.000 C467.667,343.000 467.333,343.000 467.000,343.000 C461.717,337.961 447.795,336.016 446.000,328.000 C446.333,328.000 446.667,328.000 447.000,328.000 C447.000,327.667 447.000,327.333 447.000,327.000 C468.679,323.798 478.252,332.790 495.000,340.000 C488.932,332.626 471.457,331.249 468.000,322.000 C473.197,320.713 479.532,315.616 487.000,318.000 C491.612,319.472 495.620,323.490 501.000,325.000 C501.000,324.667 501.000,324.333 501.000,324.000 C497.000,321.667 493.000,319.333 489.000,317.000 C489.000,316.000 489.000,315.000 489.000,314.000 C501.555,313.859 509.681,316.413 520.000,317.000 C520.599,315.275 520.890,313.848 521.000,311.000 C518.458,309.545 519.872,311.217 519.000,308.000 C525.666,305.334 532.334,302.666 539.000,300.000 C539.000,299.333 539.000,298.667 539.000,298.000 C536.667,298.000 534.333,298.000 532.000,298.000 C526.018,302.156 509.135,307.828 501.000,309.000 C501.000,308.000 501.000,307.000 501.000,306.000 C505.540,304.883 520.292,295.670 522.000,292.000 C522.884,290.659 523.461,286.554 524.000,285.000 C523.000,285.000 522.000,285.000 521.000,285.000 C517.448,288.452 511.190,292.550 506.000,294.000 C506.000,293.000 506.000,292.000 506.000,291.000 C517.051,287.113 522.577,272.514 535.000,271.000 C535.000,271.667 535.000,272.333 535.000,273.000 C532.115,275.133 528.266,279.334 527.000,283.000 C544.297,287.410 566.945,306.490 592.000,301.000 C598.464,299.584 604.969,297.365 611.000,296.000 C611.000,296.667 611.000,297.333 611.000,298.000 C604.905,302.101 601.032,309.661 595.000,314.000 C576.602,327.232 550.430,337.743 526.000,344.000 C515.994,346.563 505.028,342.478 498.000,341.000 C498.000,341.333 498.000,341.667 498.000,342.000 C498.333,342.000 498.667,342.000 499.000,342.000 C501.375,344.364 502.970,343.935 504.000,348.000 ZM504.000,297.000 C500.755,296.172 502.472,297.490 501.000,295.000 C501.333,295.000 501.667,295.000 502.000,295.000 C502.000,294.667 502.000,294.333 502.000,294.000 C502.667,294.000 503.333,294.000 504.000,294.000 C504.000,295.000 504.000,296.000 504.000,297.000 ZM496.000,298.000 C498.467,299.295 496.681,297.571 498.000,300.000 C497.667,300.000 497.333,300.000 497.000,300.000 C495.979,300.804 496.726,300.355 495.000,301.000 C495.333,300.000 495.667,299.000 496.000,298.000 ZM524.000,318.000 C526.874,320.701 532.553,322.018 537.000,323.000 C534.011,320.171 528.772,318.985 524.000,318.000 ZM104.000,342.000 C104.372,339.924 104.242,340.076 105.000,339.000 C108.564,335.616 136.629,322.684 142.000,321.000 C148.787,318.872 157.009,322.406 161.000,324.000 C161.000,324.667 161.000,325.333 161.000,326.000 C151.549,328.292 143.458,334.850 135.000,339.000 C135.000,339.667 135.000,340.333 135.000,341.000 C136.333,341.000 137.667,341.000 139.000,341.000 C144.233,336.101 163.485,327.022 171.000,325.000 C177.999,325.000 185.001,325.000 192.000,325.000 C192.000,325.667 192.000,326.333 192.000,327.000 C191.667,327.000 191.333,327.000 191.000,327.000 C186.000,330.333 180.999,333.667 176.000,337.000 C176.909,338.084 175.922,337.085 177.000,338.000 C177.000,338.333 177.000,338.667 177.000,339.000 C190.411,333.596 197.100,323.461 215.000,323.000 C215.000,323.333 215.000,323.667 215.000,324.000 C212.164,325.577 210.202,326.603 209.000,330.000 C209.667,330.000 210.333,330.000 211.000,330.000 C217.239,321.770 229.162,320.809 244.000,321.000 C244.000,321.333 244.000,321.667 244.000,322.000 C243.667,322.000 243.333,322.000 243.000,322.000 C237.115,327.431 228.067,328.686 220.000,332.000 C199.590,340.384 176.336,344.997 147.000,345.000 C140.667,345.000 134.333,345.000 128.000,345.000 C120.682,343.380 112.368,342.121 104.000,342.000 Z"/>
</svg>